PathFileType	4	(X/Y/Z)	 1.9Hzhigh3min.trc
DataRate	CameraRate	NumFrames	NumMarkers	Units	OrigDataRate	OrigDataStartFrame	OrigNumFrames
200	200	10	39	m	200	501	1000
Frame#	Time	C7			LSH			RSH			MAN			RASI			LASI			HIPR			HIPL			RPSI			LPSI			COX			RTHI1			RTHI2			RTHI3			RTHI4			RLKN			RMKN			RSHA1			RSHA2			RSHA3			RSHA4			RHEEL			RMET5			RMET1			RTOE			LTHI1			LTHI2			LTHI3			LTHI4			LLKN			LMKN			LSHA1			LSHA2			LSHA3			LSHA4			LHEEL			LMET5			LMET1			LTOE			
		X1	Y1	Z1	X2	Y2	Z2	X3	Y3	Z3	X4	Y4	Z4	X5	Y5	Z5	X6	Y6	Z6	X7	Y7	Z7	X8	Y8	Z8	X9	Y9	Z9	X10	Y10	Z10	X11	Y11	Z11	X12	Y12	Z12	X13	Y13	Z13	X14	Y14	Z14	X15	Y15	Z15	X16	Y16	Z16	X17	Y17	Z17	X18	Y18	Z18	X19	Y19	Z19	X20	Y20	Z20	X21	Y21	Z21	X22	Y22	Z22	X23	Y23	Z23	X24	Y24	Z24	X25	Y25	Z25	X26	Y26	Z26	X27	Y27	Z27	X28	Y28	Z28	X29	Y29	Z29	X30	Y30	Z30	X31	Y31	Z31	X32	Y32	Z32	X33	Y33	Z33	X34	Y34	Z34	X35	Y35	Z35	X36	Y36	Z36	X37	Y37	Z37	X38	Y38	Z38	X39	Y39	Z39	
501	2.5050	-0.333720	1.345221	-0.536972	-0.270103	1.337603	-0.715550	-0.268455	1.321147	-0.369762	-0.198087	1.289296	-0.543876	-0.183684	0.900430	-0.419746	-0.177804	0.899750	-0.646952	-0.245150	0.950185	-0.394202	-0.238969	0.938741	-0.682896	-0.345065	0.932665	-0.485502	-0.345068	0.929721	-0.591082	-0.344524	0.941841	-0.534784	-0.261681	0.699160	-0.372907	-0.235362	0.645637	-0.371360	-0.176653	0.671815	-0.359209	-0.197114	0.730219	-0.361248	-0.141252	0.416248	-0.400002	-0.129151	0.416077	-0.484157	-0.236537	0.347373	-0.368630	-0.260881	0.312174	-0.375908	-0.188424	0.321413	-0.385967	-0.207769	0.286074	-0.389698	-0.405440	0.104983	-0.448424	-0.275129	0.031070	-0.383002	-0.236361	0.035998	-0.452705	-0.209615	0.027450	-0.446083	-0.245914	0.690409	-0.710743	-0.214447	0.637444	-0.709511	-0.156297	0.665505	-0.708022	-0.179140	0.721681	-0.709191	-0.141238	0.413772	-0.680768	-0.136222	0.418994	-0.593776	-0.250319	0.311028	-0.706825	-0.272920	0.277476	-0.705422	-0.218591	0.249831	-0.689730	-0.202073	0.290657	-0.693912	-0.413141	0.084481	-0.650240	-0.271260	0.032291	-0.706629	-0.232108	0.036806	-0.642268	-0.205537	0.025904	-0.640635	
502	2.5100	-0.334219	1.352063	-0.537764	-0.270369	1.344882	-0.715612	-0.269772	1.328457	-0.370055	-0.198591	1.296990	-0.543861	-0.182824	0.907537	-0.420096	-0.176773	0.906902	-0.647178	-0.244214	0.957776	-0.394626	-0.238224	0.946387	-0.682858	-0.343995	0.939809	-0.485690	-0.344057	0.936861	-0.591451	-0.343574	0.948699	-0.534890	-0.261782	0.706417	-0.372682	-0.235999	0.652530	-0.371250	-0.177478	0.678567	-0.360235	-0.196944	0.736970	-0.361645	-0.144068	0.422276	-0.399930	-0.132114	0.422056	-0.484263	-0.238736	0.352631	-0.368316	-0.262645	0.317003	-0.375705	-0.190264	0.327088	-0.385506	-0.209232	0.291496	-0.389212	-0.403923	0.108362	-0.447532	-0.274479	0.031579	-0.383106	-0.236276	0.036032	-0.452674	-0.209655	0.027453	-0.446161	-0.245636	0.697693	-0.711333	-0.214665	0.644466	-0.709895	-0.156331	0.672004	-0.707609	-0.178650	0.728345	-0.708867	-0.144511	0.419973	-0.680723	-0.139869	0.425039	-0.593591	-0.252443	0.315889	-0.707087	-0.274575	0.282234	-0.705882	-0.219947	0.254966	-0.690170	-0.203824	0.296067	-0.694187	-0.411693	0.087933	-0.651205	-0.270586	0.032802	-0.706510	-0.231980	0.036787	-0.642212	-0.205564	0.025899	-0.640580	
503	2.5150	-0.334659	1.359135	-0.538687	-0.270604	1.352460	-0.715644	-0.270609	1.336310	-0.370441	-0.199127	1.304547	-0.543932	-0.182033	0.914793	-0.420334	-0.175735	0.914359	-0.647345	-0.243103	0.965507	-0.395137	-0.237296	0.954426	-0.682707	-0.342991	0.947126	-0.485769	-0.343083	0.944196	-0.591713	-0.342725	0.955895	-0.535213	-0.261994	0.713721	-0.372557	-0.236513	0.659793	-0.371015	-0.177185	0.684888	-0.359950	-0.196765	0.743755	-0.361980	-0.146871	0.428669	-0.399822	-0.135176	0.428172	-0.484219	-0.241021	0.358043	-0.368186	-0.264468	0.322122	-0.375421	-0.192178	0.332949	-0.385067	-0.210531	0.297207	-0.388434	-0.402218	0.112062	-0.446483	-0.273736	0.032051	-0.383193	-0.236110	0.036035	-0.452700	-0.209706	0.027444	-0.446240	-0.245456	0.705162	-0.711914	-0.214938	0.651731	-0.710263	-0.156427	0.678764	-0.707284	-0.178180	0.735334	-0.708760	-0.147947	0.426434	-0.680805	-0.143457	0.431496	-0.593595	-0.254614	0.321053	-0.707541	-0.276312	0.287090	-0.706399	-0.221389	0.260544	-0.690822	-0.205714	0.301932	-0.694697	-0.410035	0.091608	-0.652229	-0.269707	0.033467	-0.706318	-0.231833	0.036701	-0.642150	-0.205645	0.025889	-0.640546	
504	2.5200	-0.335194	1.366424	-0.539334	-0.270895	1.360208	-0.715610	-0.271605	1.344473	-0.370805	-0.199396	1.312262	-0.544008	-0.181180	0.922385	-0.420624	-0.174707	0.921989	-0.647480	-0.241943	0.973450	-0.395772	-0.236184	0.962713	-0.682648	-0.341909	0.954616	-0.485946	-0.342023	0.951869	-0.592061	-0.341731	0.963211	-0.535345	-0.262123	0.721295	-0.372391	-0.237183	0.667070	-0.370943	-0.177794	0.692099	-0.360380	-0.196613	0.750797	-0.362283	-0.150346	0.435601	-0.399098	-0.138164	0.434581	-0.484118	-0.243387	0.363495	-0.368049	-0.266368	0.327407	-0.375112	-0.194303	0.338992	-0.384990	-0.211997	0.303053	-0.387662	-0.400088	0.115596	-0.445429	-0.272910	0.032667	-0.383333	-0.235888	0.036039	-0.452700	-0.209792	0.027441	-0.446289	-0.245297	0.712912	-0.712550	-0.215282	0.659147	-0.710695	-0.156621	0.685636	-0.707033	-0.177831	0.742340	-0.708492	-0.151407	0.433152	-0.680998	-0.147555	0.437977	-0.593533	-0.256906	0.326675	-0.708217	-0.278076	0.292066	-0.707007	-0.222659	0.266389	-0.691527	-0.207620	0.307807	-0.695529	-0.408160	0.095496	-0.653196	-0.268879	0.034036	-0.706258	-0.231674	0.036670	-0.642076	-0.205754	0.025911	-0.640481	
505	2.5250	-0.335714	1.373694	-0.539942	-0.271257	1.368147	-0.715598	-0.272470	1.352747	-0.371206	-0.199674	1.320104	-0.544124	-0.180404	0.930192	-0.420934	-0.173632	0.929833	-0.647642	-0.240844	0.981683	-0.396318	-0.235151	0.971189	-0.682606	-0.340839	0.962323	-0.486054	-0.340868	0.959679	-0.592404	-0.340825	0.970695	-0.535493	-0.262377	0.728813	-0.372206	-0.237879	0.674480	-0.370640	-0.177975	0.698737	-0.360362	-0.196474	0.757933	-0.362562	-0.153394	0.442301	-0.398752	-0.141144	0.441077	-0.483827	-0.245678	0.369287	-0.367715	-0.268174	0.332831	-0.374595	-0.195773	0.345542	-0.383161	-0.213536	0.308971	-0.386741	-0.397708	0.119211	-0.444553	-0.272008	0.033269	-0.383434	-0.235670	0.036048	-0.452727	-0.209935	0.027466	-0.446358	-0.245246	0.720843	-0.713140	-0.215749	0.666774	-0.711096	-0.156837	0.692770	-0.706842	-0.177543	0.749577	-0.708491	-0.154948	0.440108	-0.681347	-0.151253	0.444650	-0.593754	-0.258998	0.332040	-0.708813	-0.279749	0.297210	-0.707680	-0.224031	0.272154	-0.692351	-0.209622	0.313989	-0.696361	-0.406058	0.099530	-0.654202	-0.267852	0.034793	-0.706113	-0.231478	0.036620	-0.641979	-0.205847	0.025918	-0.640445	
506	2.5300	-0.336256	1.381054	-0.540414	-0.271607	1.376182	-0.715504	-0.273375	1.361217	-0.371678	-0.200043	1.328143	-0.544148	-0.179650	0.938064	-0.421212	-0.172617	0.937743	-0.647775	-0.239727	0.990015	-0.396901	-0.234031	0.979638	-0.682520	-0.339693	0.970221	-0.486180	-0.339771	0.967736	-0.592739	-0.339861	0.978222	-0.535805	-0.262562	0.736736	-0.371986	-0.238598	0.682154	-0.370388	-0.178525	0.706191	-0.360823	-0.196423	0.765149	-0.362786	-0.156349	0.449152	-0.398415	-0.144186	0.447587	-0.483454	-0.248098	0.374953	-0.367372	-0.269976	0.338163	-0.374120	-0.197860	0.351519	-0.382820	-0.214542	0.315033	-0.385416	-0.395488	0.123148	-0.443519	-0.271126	0.033743	-0.383642	-0.235428	0.036019	-0.452762	-0.210065	0.027478	-0.446425	-0.245258	0.728818	-0.713631	-0.216318	0.674489	-0.711498	-0.157173	0.699938	-0.706761	-0.177335	0.756944	-0.708409	-0.158398	0.447124	-0.681697	-0.154875	0.451348	-0.594043	-0.261086	0.337855	-0.709501	-0.281422	0.302519	-0.708391	-0.225197	0.278366	-0.693299	-0.211352	0.320225	-0.697175	-0.403709	0.103700	-0.655179	-0.266900	0.035376	-0.706039	-0.231256	0.036578	-0.641878	-0.205927	0.025927	-0.640397	
507	2.5350	-0.336715	1.388425	-0.541083	-0.271985	1.384304	-0.715401	-0.274222	1.369736	-0.372167	-0.200778	1.336736	-0.544159	-0.178974	0.945955	-0.421557	-0.171572	0.945742	-0.647802	-0.238686	0.998348	-0.397373	-0.232859	0.988162	-0.682395	-0.338668	0.978213	-0.486458	-0.338651	0.975885	-0.593237	-0.338980	0.985973	-0.536132	-0.262922	0.744559	-0.371784	-0.239423	0.689823	-0.370227	-0.178963	0.713078	-0.360563	-0.196426	0.772433	-0.362926	-0.159490	0.456079	-0.397885	-0.147196	0.454124	-0.482949	-0.250396	0.380876	-0.366715	-0.271730	0.343704	-0.373495	-0.199758	0.358030	-0.381862	-0.215969	0.321271	-0.384356	-0.392981	0.127090	-0.442564	-0.270230	0.034269	-0.383555	-0.235163	0.036000	-0.452806	-0.210227	0.027483	-0.446487	-0.245391	0.736906	-0.714206	-0.217026	0.682333	-0.711950	-0.157712	0.706984	-0.706825	-0.177226	0.764392	-0.708603	-0.161852	0.454226	-0.682215	-0.158479	0.458231	-0.594441	-0.263085	0.343351	-0.710154	-0.282966	0.307905	-0.709101	-0.226372	0.284550	-0.694294	-0.213174	0.326690	-0.698265	-0.401111	0.108079	-0.656051	-0.265746	0.036082	-0.705930	-0.230967	0.036515	-0.641748	-0.206024	0.025924	-0.640364	
508	2.5400	-0.337340	1.396058	-0.541376	-0.272347	1.392472	-0.715250	-0.275004	1.378309	-0.372714	-0.201350	1.345176	-0.544151	-0.178004	0.953826	-0.421773	-0.170606	0.953686	-0.647927	-0.237634	1.006733	-0.397825	-0.231640	0.996764	-0.682296	-0.337585	0.986315	-0.486646	-0.337479	0.983963	-0.593613	-0.337937	0.993752	-0.536328	-0.263307	0.752370	-0.371695	-0.240351	0.697454	-0.370002	-0.179767	0.720292	-0.360944	-0.196514	0.779679	-0.362997	-0.162596	0.463160	-0.397261	-0.150050	0.460799	-0.482313	-0.252730	0.386844	-0.366242	-0.273455	0.349156	-0.372808	-0.201650	0.364524	-0.380852	-0.217352	0.327581	-0.383094	-0.389603	0.130860	-0.442108	-0.269223	0.034866	-0.383603	-0.234860	0.035957	-0.452852	-0.210407	0.027526	-0.446564	-0.245646	0.745015	-0.714688	-0.217835	0.690100	-0.712357	-0.158254	0.714239	-0.707011	-0.177248	0.771707	-0.708868	-0.165223	0.461424	-0.682797	-0.161924	0.465223	-0.594908	-0.265090	0.349061	-0.710988	-0.284286	0.313519	-0.709824	-0.227299	0.290807	-0.695273	-0.214811	0.333158	-0.699322	-0.398235	0.112504	-0.656742	-0.264665	0.036766	-0.705994	-0.230649	0.036440	-0.641623	-0.206137	0.025916	-0.640308	
509	2.5450	-0.337928	1.403401	-0.541685	-0.272741	1.400617	-0.715051	-0.274458	1.387134	-0.373719	-0.202030	1.353590	-0.544187	-0.177357	0.961707	-0.422073	-0.169690	0.961664	-0.647963	-0.236586	1.015056	-0.398244	-0.230449	1.005139	-0.682122	-0.336469	0.994316	-0.486971	-0.336322	0.992205	-0.594074	-0.337045	1.001551	-0.536772	-0.263697	0.760256	-0.371483	-0.241186	0.705127	-0.369761	-0.180447	0.727287	-0.360519	-0.196727	0.786922	-0.363000	-0.165631	0.470141	-0.396762	-0.152785	0.467537	-0.481686	-0.255107	0.392421	-0.365764	-0.275108	0.354765	-0.372105	-0.203487	0.371151	-0.379482	-0.218554	0.333797	-0.381989	-0.386386	0.134894	-0.441408	-0.268412	0.035320	-0.383702	-0.234547	0.035726	-0.452776	-0.210619	0.027601	-0.446586	-0.246056	0.753110	-0.715131	-0.218776	0.697971	-0.712813	-0.158965	0.721595	-0.707341	-0.177358	0.779254	-0.709278	-0.168514	0.468718	-0.683482	-0.165305	0.472164	-0.595517	-0.266885	0.354773	-0.711822	-0.285538	0.318999	-0.710552	-0.228044	0.297211	-0.696335	-0.216280	0.339760	-0.700382	-0.395054	0.117072	-0.657338	-0.263505	0.037498	-0.706029	-0.230316	0.036371	-0.641500	-0.206277	0.025951	-0.640244	
510	2.5500	-0.338459	1.410634	-0.541951	-0.273099	1.408709	-0.714845	-0.275188	1.395604	-0.374284	-0.202622	1.361880	-0.544183	-0.176735	0.969545	-0.422430	-0.168725	0.969586	-0.648045	-0.235547	1.023285	-0.398656	-0.229134	1.013537	-0.681954	-0.335472	1.002442	-0.487198	-0.335204	1.000321	-0.594427	-0.336063	1.009458	-0.536994	-0.264282	0.767965	-0.371345	-0.242304	0.712563	-0.369425	-0.181271	0.734520	-0.360720	-0.196968	0.794016	-0.363023	-0.168782	0.477237	-0.396178	-0.155320	0.474187	-0.480992	-0.257205	0.398753	-0.365158	-0.276669	0.360138	-0.371319	-0.205361	0.377841	-0.378746	-0.219773	0.340145	-0.380795	-0.382882	0.138992	-0.440807	-0.267305	0.035819	-0.383730	-0.234011	0.035676	-0.452801	-0.210842	0.027675	-0.446604	-0.246523	0.761241	-0.715533	-0.219811	0.705812	-0.713272	-0.159831	0.728725	-0.707737	-0.177649	0.786583	-0.709419	-0.171724	0.476024	-0.684209	-0.168469	0.479213	-0.596162	-0.268512	0.360620	-0.712591	-0.286615	0.324434	-0.711186	-0.228640	0.303774	-0.697375	-0.217652	0.346365	-0.701580	-0.391551	0.121621	-0.657780	-0.262333	0.038176	-0.706152	-0.229938	0.036332	-0.641446	-0.206421	0.025900	-0.640249	
